<svg id="Layer_1" data-name="Layer 1" xmlns="http://www.w3.org/2000/svg" viewBox="0 0 513.19 183.06"><defs><style>.cls-1{fill:#fff;}.cls-2{fill:none;}</style></defs><path id="path27" class="cls-1" d="M361,81.62c-7,1.61-25.4,2.53-25.4,2.53l-2.34,7.29a105.36,105.36,0,0,1,15.89-.1s2.19-.24,2.43,2.48a41.75,41.75,0,0,1-.2,5.25s-.14,1.65-2.47,2c-2.53.43-19.82,1.06-19.82,1.06l-2.82,9.48s-1,2.18,1.31,1.55,20.31-4,22.69-3.49,5.34,4,4.52,7.09c-1,3.79-19.05,15.35-30.08,14.52,0,0-5.78.39-10.69-7.43-4.56-7.43,1.75-21.57,1.75-21.57s-2.86-6.61-.77-8.79c0,0,1.26-1.12,4.85-1.41l4.43-9.18s-5.06.34-8.07-3.36c-2.82-3.54-3-5.15-.87-6.12s23.32-5,37.79-4.47c0,0,5.06-.48,9.38,8.26-.05,0,2.09,3.55-1.51,4.37ZM306.54,116.9c-1.84,4.37-6.75,9-12.82,6.12s-15.6-22.5-15.6-22.5-3.64-7.28-4.32-7.14c0,0-.78-1.41-1.26,6.56s.09,23.47-3.07,25.89a5.64,5.64,0,0,1-8-.57,5.42,5.42,0,0,1-.59-.83c-1.7-2.82-2.42-9.53-1.5-21.28,1.12-11.76,3.84-24.29,7.33-28.23s6.32-1.07,7.39,0c0,0,4.66,4.23,12.39,16.66l1.36,2.29s7,11.76,7.72,11.71c0,0,.59.53,1.07.14.73-.19.44-4,.44-4s-1.46-12.78-7.82-34.45A10,10,0,0,1,289,62c.68-2.53,3.2-1.36,3.2-1.36s9.91,4.95,14.67,21.08,1.51,30.8-.34,35.17ZM257.86,75.45c-.82,1.66-1.31,4-5.49,4.67,0,0-40,2.72-41.87,5.54,0,0-1.41,1.65.77,2.13s11.23,1.66,15.6,1.9c4.66,0,20.4.19,26,7.24,0,0,3.35,3.35,3.2,10.93-.14,7.77-1.5,10.49-4.51,13.31-3.16,2.62-30.27,14.77-47.76-3.89,0,0-8.07-9,2.77-15.79,0,0,7.82-4.71,27.69.83,0,0,6,2.19,5.73,4.37-.34,2.33-5,4.81-11.66,4.67A22.16,22.16,0,0,1,218,108.54c.87.34-7-3.79-9.43-1-2.43,2.57-1.85,4.18.53,5.78,6.08,3.45,29.54,2.23,36.54-5.54,0,0,2.77-3.16-1.46-5.73s-16.32-3.89-21-4.13c-4.52-.24-21.33,0-23.76-4.42,0,0-2.43-3,.24-11.57,2.82-8.93,22.4-12.38,30.85-13.16,0,0,23.27-.83,27.55,3.93a3.61,3.61,0,0,1-.2,2.72Zm-66.07,52.42C189,130,183,129,181.3,126.71c-1.7-2.09-2.29-10.4-2-23.42s.64-29.49,3.45-32.06c3-2.63,4.86-.34,6,1.46A13.6,13.6,0,0,1,192,80.51c.34,4.13,1.26,25.79,1.26,25.79s1.26,19.53-1.41,21.57ZM197.86,58c-8.21,2.72-13.84,1.8-18.6-.24-2.09,3.64-3.31,4.76-4.91,5-2.33.25-4.42-3.49-4.81-4.71-.39-.92-1.51-2.48-.15-6.17a14.11,14.11,0,0,1-4.22-13.6c1.16-4.37,9-21,33-22.93,0,0,11.7-.88,13.7,5.39h.34s11.36,0,11.12,10.15S210.72,53.69,197.89,58ZM175.52,35.52c-2.43,3.89-2.53,6.22-1.41,7.82a57.69,57.69,0,0,1,15.25-15.93,17.3,17.3,0,0,0-13.81,8.11ZM208.6,29c-7.53,1.12-19.19,11.22-24.73,19.48,8.5,1.56,23.52,1,30.17-12.58C214,35.91,217.2,27.5,208.6,29ZM413,107.28c-4.52,7.87-17.2,24.29-34.11,20.45A175.2,175.2,0,0,0,366,175.44s-.58,4-3.89,2.57c-3.25-1.16-8.69-6.6-9.76-14.14C351.18,154,355.6,137.2,364.59,118c-2.62-4.27-4.42-10.39-2.87-19.09,0,0,2.29-16.13,18.46-30.7,0,0,1.95-1.7,3.07-1.17s.68,5.78-.34,8.31-8.26,15.06-8.26,15.06-4.52,8.45-3.26,15.11c8.5-13.07,27.84-39.45,39.84-31.14,4,2.86,5.88,9.13,5.88,15.88a37,37,0,0,1-4.08,17Zm-3.5-20.7s-.68-5.2-5.73.53A123.8,123.8,0,0,0,385.2,113.3c6.65-.73,13.07-4.37,15-6.22,3.2-2.82,10.53-10.4,9.37-20.5ZM173.7,93.21c-.92,11.75-5.44,31.53-37.46,41.29-21.13,6.37-41.1,3.31-52,.54-.24,4.32-.73,6.17-1.41,6.9-.92.92-7.82,4.9-11.61-.73-1.7-2.68-2.58-7.53-3.06-11.86C43.69,118.06,32.42,101.83,32,101.11a9.87,9.87,0,0,1-.53-13.51c5.25-6.46,22.4-12.92,37.85-15.55.53-13.21,2.08-23.17,3.93-27.74,2.24-5.29,5-.53,7.48,3.06,2,2.68,3.26,14.19,3.35,23.37,10.11-.48,16.09.24,27.36,2.29C126.09,75.7,135.9,83.21,135,91.68c-.63,8.36-8.31,11.81-11.23,12s-7.82-1.94-7.82-1.94c-3.25-1.56-.24-2.92,3.7-4.62,4.27-2.09,3.3-4.23,3.3-4.23C121.35,88.28,102.3,85,83.35,85c-.09,10.44.44,27.78.68,37.89a107.93,107.93,0,0,0,23.18,2s48.39-1.36,49.84-32.26S108.81,32,72.05,22.6c-36.72-9.61-57.52-2.91-59.32-2s-.14,1.27-.14,1.27A33.9,33.9,0,0,1,18,23.37c3.64,1.17.83,3.06.83,3.06-6.27,2-13.32.73-14.68-2.13s.93-5.44,3.55-9.14c2.62-3.88,5.49-3.74,5.49-3.74C58.66-4.32,114,24.15,114,24.15c51.84,26.28,60.68,57.09,59.71,69ZM36.6,91.58c-5.15,2.53-1.6,6.17-1.6,6.17,9.66,10.4,21.57,16.91,32.89,20.94C69.2,100.77,69,94.45,69.15,85.41,51.47,86.63,41.26,89.41,36.6,91.58Z"/><path id="path29" class="cls-1" d="M509.26,87.89V94.3a2.51,2.51,0,0,1-2.49,2.53H476.18v4.32a231,231,0,0,1-1.31,25.9,2.5,2.5,0,0,1-2.47,2.28h-6.61a2.37,2.37,0,0,1-1.75-.77,2.28,2.28,0,0,1-.58-1.85,229.74,229.74,0,0,0,1.36-25.56c0-1.36,0-2.76-.05-4.32H434.59a2.51,2.51,0,0,1-2.53-2.49h0V87.89a2.51,2.51,0,0,1,2.49-2.52h29.82a223.71,223.71,0,0,0-3.94-30.71,2.29,2.29,0,0,1,.44-1.75,2.09,2.09,0,0,1,1.61-.78h7.14A2.34,2.34,0,0,1,471.9,54a248.42,248.42,0,0,1,3.89,31.34h30.94a2.56,2.56,0,0,1,2.53,2.52Z"/><path id="path31" class="cls-2" d="M100.83,3.21h0m-.34,0h-.44a1,1,0,0,0,.39,0Zm0,0h-.44a1,1,0,0,0,.39,0Z"/></svg>