<svg id="Layer_1" data-name="Layer 1" xmlns="http://www.w3.org/2000/svg" xmlns:xlink="http://www.w3.org/1999/xlink" viewBox="0 0 549.96 109"><defs><style>.cls-1{fill:none;}.cls-2{fill:#fff;}.cls-3{fill:url(#Degradado_sin_nombre);}.cls-4{clip-path:url(#clip-path);}.cls-5{fill:url(#Degradado_sin_nombre_2);}.cls-6{fill:url(#Degradado_sin_nombre_3);}.cls-7{fill:url(#Degradado_sin_nombre_4);}</style><linearGradient id="Degradado_sin_nombre" x1="-2423.54" y1="204.01" x2="-1804.11" y2="204.01" gradientTransform="matrix(0.49, 0, 0, -0.49, 1424.62, 153.62)" gradientUnits="userSpaceOnUse"><stop offset="0" stop-color="#991eeb"/><stop offset="0.4" stop-color="#5822b4"/><stop offset="0.73" stop-color="#5822b4"/><stop offset="1" stop-color="#991eeb"/></linearGradient><clipPath id="clip-path"><path class="cls-1" d="M364.51,41.3C364,19.23,348.4,7.56,329.26,7.56c-10.5,0-20,3.52-26.42,10.35-6.45-6.83-15.92-10.35-26.42-10.35-19.14,0-34.77,11.72-35.25,33.79V91.84a8.35,8.35,0,0,0,8.35,8.35h7.91a1.41,1.41,0,0,0,1.41-1.41V41.45h0c.34-10.89,8.06-16.65,17.58-16.65S293.66,30.56,294,41.45h0V91.8a8.35,8.35,0,0,0,8.35,8.35h7.91a1.43,1.43,0,0,0,1.42-1.42V41.4h0c.34-10.89,8.06-16.65,17.58-16.65s17.24,5.76,17.58,16.65h0V91.75a8.35,8.35,0,0,0,8.35,8.35h7.91a1.42,1.42,0,0,0,1.41-1.42V41.35c.05,0,0,0,0-.05ZM542.6,9H529.17a11.22,11.22,0,0,0-9.27,4.93l-14.85,22a4.88,4.88,0,0,1-8.1,0l-14.85-22A11.18,11.18,0,0,0,472.82,9H459.39a1.05,1.05,0,0,0-.88,1.61L485,49.85a8.38,8.38,0,0,1,0,9.37L458.51,98.49a1,1,0,0,0,.88,1.61h13.43a11.27,11.27,0,0,0,9.28-4.93l14.85-22a4.88,4.88,0,0,1,8.1,0l14.85,22a11.18,11.18,0,0,0,9.27,4.93H542.6a1,1,0,0,0,.88-1.61L517,59.27a8.38,8.38,0,0,1,0-9.37l26.46-39.26A1.05,1.05,0,0,0,542.6,9ZM452.46,9h-7.91a8.42,8.42,0,0,0-8.2,6.59A41.44,41.44,0,0,0,411,7.46C387.81,7.46,369,23.58,369,54s18.75,46.54,41.94,46.54a41.61,41.61,0,0,0,25.25-8,8.38,8.38,0,0,0,8.35,7.61h7.91a1.42,1.42,0,0,0,1.42-1.41V10.39A1.45,1.45,0,0,0,452.46,9ZM411,83.25c-13.82,0-25.05-10.11-25.05-29.2s11.23-29.2,25.05-29.2S436,35,436,54.05,424.77,83.25,411,83.25Z"/></clipPath><radialGradient id="Degradado_sin_nombre_2" cx="-6708.6" cy="346.3" r="164.6" gradientTransform="matrix(0.33, 0, 0, -0.43, 2515.39, 184.84)" gradientUnits="userSpaceOnUse"><stop offset="0" stop-color="#7ba7f2" stop-opacity="0.5"/><stop offset="1" stop-color="#7ba7f2" stop-opacity="0"/></radialGradient><radialGradient id="Degradado_sin_nombre_3" cx="-2164.24" cy="401.5" r="227.56" gradientTransform="matrix(0.49, 0, 0, -0.35, 1424.62, 234.33)" gradientUnits="userSpaceOnUse"><stop offset="0.2" stop-color="#7ba7f2"/><stop offset="1" stop-color="#7ba7f2" stop-opacity="0"/></radialGradient><radialGradient id="Degradado_sin_nombre_4" cx="-2024.54" cy="288.41" r="123.8" gradientTransform="matrix(0.49, 0, 0, -0.49, 1424.62, 153.62)" gradientUnits="userSpaceOnUse"><stop offset="0" stop-color="#7ba7f2"/><stop offset="1" stop-color="#7ba7f2" stop-opacity="0"/></radialGradient></defs><g id="g52"><path id="path3441" class="cls-2" d="M72.65,100.15H47.89V64.84h-16v35.31H6.48V9.07H31.82v34h16v-34H72.6v91.08Zm113.48.39c25.35,0,46.05-21.1,46.05-46.78A45.86,45.86,0,0,0,186.13,7.51c-25.68,0-38.67,18.66-41.8,26.27C144.33,22.5,133.05,9,120,9H77.68v91.12H117c16,0,27.29-13.68,27.29-25.69C147.9,81.88,160.5,100.54,186.13,100.54Zm-72.22-37c3.66,0,6.59,3.57,6.59,7.62,0,4.25-2.93,7.81-6.59,7.81h-12.6V63.52Zm0-34.18c3.66,0,6.59,3.56,6.59,7.62s-2.93,7.62-6.59,7.62h-12.6V29.34Zm16.65,24.42c2.93-.2,7.72-3.57,9.52-5.57-.68,2.44-.68,10.16,0,12.6C138.08,57.81,133.49,54.29,130.56,53.76Zm32.47,0A23.15,23.15,0,1,1,186.18,77,23.16,23.16,0,0,1,163,53.76ZM186.13,72a18.22,18.22,0,0,0,0-36.43,18.22,18.22,0,1,0,0,36.43Z"/><g id="g888"><path class="cls-3" d="M364.51,41.3C364,19.23,348.4,7.56,329.26,7.56c-10.5,0-20,3.52-26.42,10.35-6.45-6.83-15.92-10.35-26.42-10.35-19.14,0-34.77,11.72-35.25,33.79V91.84a8.35,8.35,0,0,0,8.35,8.35h7.91a1.41,1.41,0,0,0,1.41-1.41V41.45h0c.34-10.89,8.06-16.65,17.58-16.65S293.66,30.56,294,41.45h0V91.8a8.35,8.35,0,0,0,8.35,8.35h7.91a1.43,1.43,0,0,0,1.42-1.42V41.4h0c.34-10.89,8.06-16.65,17.58-16.65s17.24,5.76,17.58,16.65h0V91.75a8.35,8.35,0,0,0,8.35,8.35h7.91a1.42,1.42,0,0,0,1.41-1.42V41.35c.05,0,0,0,0-.05ZM542.6,9H529.17a11.22,11.22,0,0,0-9.27,4.93l-14.85,22a4.88,4.88,0,0,1-8.1,0l-14.85-22A11.18,11.18,0,0,0,472.82,9H459.39a1.05,1.05,0,0,0-.88,1.61L485,49.85a8.38,8.38,0,0,1,0,9.37L458.51,98.49a1,1,0,0,0,.88,1.61h13.43a11.27,11.27,0,0,0,9.28-4.93l14.85-22a4.88,4.88,0,0,1,8.1,0l14.85,22a11.18,11.18,0,0,0,9.27,4.93H542.6a1,1,0,0,0,.88-1.61L517,59.27a8.38,8.38,0,0,1,0-9.37l26.46-39.26A1.05,1.05,0,0,0,542.6,9ZM452.46,9h-7.91a8.42,8.42,0,0,0-8.2,6.59A41.44,41.44,0,0,0,411,7.46C387.81,7.46,369,23.58,369,54s18.75,46.54,41.94,46.54a41.61,41.61,0,0,0,25.25-8,8.38,8.38,0,0,0,8.35,7.61h7.91a1.42,1.42,0,0,0,1.42-1.41V10.39A1.45,1.45,0,0,0,452.46,9ZM411,83.25c-13.82,0-25.05-10.11-25.05-29.2s11.23-29.2,25.05-29.2S436,35,436,54.05,424.77,83.25,411,83.25Z"/><g id="g3453"><g class="cls-4"><ellipse id="ellipse3466" class="cls-5" cx="313.97" cy="36.91" rx="54.01" ry="70.32"/></g><g class="cls-4"><ellipse id="ellipse3473" class="cls-6" cx="367.79" cy="95.51" rx="111.14" ry="78.67"/></g><g class="cls-4"><circle id="circle3480" class="cls-7" cx="436" cy="12.79" r="60.45"/></g></g></g></g></svg>