<?xml version="1.0" encoding="utf-8"?>
<!-- Generator: Adobe Illustrator 26.0.0, SVG Export Plug-In . SVG Version: 6.00 Build 0)  -->
<svg version="1.1" id="Capa_1" xmlns="http://www.w3.org/2000/svg" xmlns:xlink="http://www.w3.org/1999/xlink" x="0px" y="0px"
	 viewBox="0 0 942.6 276.8" style="enable-background:new 0 0 942.6 276.8;" xml:space="preserve">
<style type="text/css">
	.st0{fill:#D81F26;}
</style>
<path class="st0" d="M136.5,248.9c-13.9,2.4-28,3.2-42.6,5.1L49.3,123.4v136.2c-13.9,1.5-26.6,3.4-39.7,5.4V15.5h37l50.7,141.5V15.5
	h39.2L136.5,248.9z M213.3,106.9c15.1,0,38.2-0.7,52.1-0.7v39c-17.3,0-37.5,0-52.1,0.7v58c22.9-1.5,45.8-3.4,68.9-4.1v37.5
	l-107.9,8.5V15.5h107.9v39h-68.9V106.9z M427.2,54.5h-40.4v179.3c-13.2,0-26.3,0-39,0.5V54.5h-40.4v-39h119.9L427.2,54.5z
	 M490.5,104.2h53.4v39h-53.4v88.4h-38.3V15.5h108.9v39h-70.7V104.2z M624.5,197.5c22.2,0.5,44.6,2.2,66.3,3.4v38.5
	c-34.8-2.2-69.7-4.4-105.2-5.1V15.5h39V197.5z M723.7,242.1c12.4,0.7,25.6,1.5,38.2,2.9V15.5h-38.2V242.1z M932.7,15.5l-49.5,118.6
	L932.7,265c-14.6-1.9-29.2-4.6-43.9-7.1l-28-72.1l-28.5,66.3c-14.1-2.4-27.8-3.2-41.9-5.1l50.2-114.3L795.3,15.5h41.9l25.6,65.5
	l27.3-65.5H932.7z"/>
</svg>
